<mxfile host="app.diagrams.net" agent="Mozilla/5.0 (Macintosh; Intel Mac OS X 10_15_7) AppleWebKit/537.36 (KHTML, like Gecko) Chrome/134.0.0.0 Safari/537.36" version="26.1.1">
  <diagram name="第 1 页" id="A41IdU-MiqI3hHbnCtoj">
    <mxGraphModel dx="1224" dy="774" grid="1" gridSize="10" guides="1" tooltips="1" connect="1" arrows="1" fold="1" page="1" pageScale="1" pageWidth="827" pageHeight="1169" math="0" shadow="0">
      <root>
        <mxCell id="0" />
        <mxCell id="1" parent="0" />
        <mxCell id="7ft12tA9f4cUfO77U2QP-14" style="edgeStyle=orthogonalEdgeStyle;rounded=0;orthogonalLoop=1;jettySize=auto;html=1;exitX=0.5;exitY=0;exitDx=0;exitDy=0;entryX=0.5;entryY=1;entryDx=0;entryDy=0;" edge="1" parent="1" source="7ft12tA9f4cUfO77U2QP-1" target="7ft12tA9f4cUfO77U2QP-11">
          <mxGeometry relative="1" as="geometry" />
        </mxCell>
        <mxCell id="7ft12tA9f4cUfO77U2QP-23" style="edgeStyle=orthogonalEdgeStyle;rounded=0;orthogonalLoop=1;jettySize=auto;html=1;exitX=0.75;exitY=1;exitDx=0;exitDy=0;entryX=0.75;entryY=0;entryDx=0;entryDy=0;" edge="1" parent="1" source="7ft12tA9f4cUfO77U2QP-1" target="7ft12tA9f4cUfO77U2QP-2">
          <mxGeometry relative="1" as="geometry" />
        </mxCell>
        <mxCell id="7ft12tA9f4cUfO77U2QP-1" value="layout组件" style="rounded=0;whiteSpace=wrap;html=1;" vertex="1" parent="1">
          <mxGeometry x="310" y="440" width="120" height="52" as="geometry" />
        </mxCell>
        <mxCell id="7ft12tA9f4cUfO77U2QP-13" style="edgeStyle=orthogonalEdgeStyle;rounded=0;orthogonalLoop=1;jettySize=auto;html=1;exitX=0.5;exitY=0;exitDx=0;exitDy=0;entryX=0.5;entryY=1;entryDx=0;entryDy=0;" edge="1" parent="1" source="7ft12tA9f4cUfO77U2QP-2" target="7ft12tA9f4cUfO77U2QP-1">
          <mxGeometry relative="1" as="geometry" />
        </mxCell>
        <mxCell id="7ft12tA9f4cUfO77U2QP-2" value="子组件" style="rounded=0;whiteSpace=wrap;html=1;" vertex="1" parent="1">
          <mxGeometry x="310" y="602" width="120" height="60" as="geometry" />
        </mxCell>
        <mxCell id="7ft12tA9f4cUfO77U2QP-7" value="mapDispatchToProps..." style="text;html=1;align=center;verticalAlign=middle;resizable=0;points=[];autosize=1;strokeColor=none;fillColor=none;" vertex="1" parent="1">
          <mxGeometry x="220" y="370" width="150" height="30" as="geometry" />
        </mxCell>
        <mxCell id="7ft12tA9f4cUfO77U2QP-8" value="containers组件" style="text;html=1;align=center;verticalAlign=middle;resizable=0;points=[];autosize=1;strokeColor=none;fillColor=none;" vertex="1" parent="1">
          <mxGeometry x="210" y="447" width="100" height="30" as="geometry" />
        </mxCell>
        <mxCell id="7ft12tA9f4cUfO77U2QP-17" style="edgeStyle=orthogonalEdgeStyle;rounded=0;orthogonalLoop=1;jettySize=auto;html=1;exitX=0.5;exitY=0;exitDx=0;exitDy=0;entryX=0.5;entryY=1;entryDx=0;entryDy=0;" edge="1" parent="1" source="7ft12tA9f4cUfO77U2QP-11" target="7ft12tA9f4cUfO77U2QP-16">
          <mxGeometry relative="1" as="geometry" />
        </mxCell>
        <mxCell id="7ft12tA9f4cUfO77U2QP-21" style="edgeStyle=orthogonalEdgeStyle;rounded=0;orthogonalLoop=1;jettySize=auto;html=1;exitX=0.75;exitY=1;exitDx=0;exitDy=0;entryX=0.75;entryY=0;entryDx=0;entryDy=0;" edge="1" parent="1" source="7ft12tA9f4cUfO77U2QP-11" target="7ft12tA9f4cUfO77U2QP-1">
          <mxGeometry relative="1" as="geometry" />
        </mxCell>
        <mxCell id="7ft12tA9f4cUfO77U2QP-11" value="action creater" style="rounded=0;whiteSpace=wrap;html=1;" vertex="1" parent="1">
          <mxGeometry x="310" y="250" width="120" height="60" as="geometry" />
        </mxCell>
        <mxCell id="7ft12tA9f4cUfO77U2QP-15" value="connect" style="text;html=1;align=center;verticalAlign=middle;resizable=0;points=[];autosize=1;strokeColor=none;fillColor=none;" vertex="1" parent="1">
          <mxGeometry x="280" y="340" width="70" height="30" as="geometry" />
        </mxCell>
        <mxCell id="7ft12tA9f4cUfO77U2QP-19" style="edgeStyle=orthogonalEdgeStyle;rounded=0;orthogonalLoop=1;jettySize=auto;html=1;exitX=0.75;exitY=1;exitDx=0;exitDy=0;" edge="1" parent="1" source="7ft12tA9f4cUfO77U2QP-16">
          <mxGeometry relative="1" as="geometry">
            <mxPoint x="400" y="240" as="targetPoint" />
          </mxGeometry>
        </mxCell>
        <mxCell id="7ft12tA9f4cUfO77U2QP-16" value="reducer" style="rounded=0;whiteSpace=wrap;html=1;" vertex="1" parent="1">
          <mxGeometry x="310" y="120" width="120" height="60" as="geometry" />
        </mxCell>
        <mxCell id="7ft12tA9f4cUfO77U2QP-18" value="dispatch" style="text;html=1;align=center;verticalAlign=middle;resizable=0;points=[];autosize=1;strokeColor=none;fillColor=none;" vertex="1" parent="1">
          <mxGeometry x="300" y="198" width="70" height="30" as="geometry" />
        </mxCell>
        <mxCell id="7ft12tA9f4cUfO77U2QP-20" value="store state" style="text;html=1;align=center;verticalAlign=middle;resizable=0;points=[];autosize=1;strokeColor=none;fillColor=none;" vertex="1" parent="1">
          <mxGeometry x="400" y="198" width="80" height="30" as="geometry" />
        </mxCell>
        <mxCell id="7ft12tA9f4cUfO77U2QP-22" value="state" style="text;html=1;align=center;verticalAlign=middle;resizable=0;points=[];autosize=1;strokeColor=none;fillColor=none;" vertex="1" parent="1">
          <mxGeometry x="405" y="338" width="50" height="30" as="geometry" />
        </mxCell>
        <mxCell id="7ft12tA9f4cUfO77U2QP-24" value="props" style="text;html=1;align=center;verticalAlign=middle;resizable=0;points=[];autosize=1;strokeColor=none;fillColor=none;" vertex="1" parent="1">
          <mxGeometry x="425" y="528" width="50" height="30" as="geometry" />
        </mxCell>
      </root>
    </mxGraphModel>
  </diagram>
</mxfile>
